<?xml version="1.0" encoding="utf-8"?>
<!-- Generator: Adobe Illustrator 16.0.0, SVG Export Plug-In . SVG Version: 6.00 Build 0)  -->
<!DOCTYPE svg PUBLIC "-//W3C//DTD SVG 1.1//EN" "http://www.w3.org/Graphics/SVG/1.1/DTD/svg11.dtd">
<svg version="1.1" id="Layer_1" xmlns="http://www.w3.org/2000/svg" xmlns:xlink="http://www.w3.org/1999/xlink" x="0px" y="0px"
	 width="30px" height="30px" viewBox="0 0 30 30" enable-background="new 0 0 30 30" xml:space="preserve">
<path fill-rule="evenodd" clip-rule="evenodd" fill="#EC1C24" d="M0,5.047l5.622,9.788L5.617,24.949h4.194v0.004h17.137
	c1.928,0,3.052-1.68,3.052-5.047V9.434c0-2.888-1.124-4.357-3.322-4.357l0,0H9.349l2.485,4.338h1l0.146,0.003L24.616,9.42
	c0.302,0,1.03,0.148,1.034,1.121v8.981c-0.004,0.973-0.732,1.12-1.034,1.12l-14.67,0.036l-0.008-3.682h12.076v-4.13L9.676,12.883
	L5.017,5.047H0"/>
</svg>
